<svg xmlns="http://www.w3.org/2000/svg" viewBox="0 0 1031.42 339.44"><defs><style>.cls-1{fill:#545454;}</style></defs><g id="Layer_2" data-name="Layer 2"><g id="Layer_1-2" data-name="Layer 1"><path class="cls-1" d="M1008.77,230.88c-2-6-8.27-7.95-11.58-6.95s-3.31,5.29-1,8.27.67,4.64-6.62,14.9-24.17,29.8-31.78,36.42-4.86-6.94-4.86-6.94.22-6.63,3.63-18.29c2.8-9.59,5.86-17.15,13.81-36s24.5-43.7,31.12-54,5.4-9.89-.56-17.5-15.41-9.7-15.41-9.7-9.85-2.6-16.81,1c-5.09,2.67-1,8.79,1.62,12.1S956.62,173.7,941.56,209c-13.14,30.83-18.14,48.83-18.62,83.43-.38,27.65,30.2,11.61,41.8,5.22,16.09-8.86,36.74-27.43,43-34.35,4.84-5.32,4.64-11.26,4.31-17.22S1010.76,236.84,1008.77,230.88Z"/><path class="cls-1" d="M1012.62,63c-5.42,0-10.8-.33-19.41,8.28s-7.28,26.9-7.28,26.9.33,7.86,4,20.11,13.25,15.56,18.74,12.25S1023,114,1027.31,106.39A34.76,34.76,0,0,0,1030,79.91C1027.31,71,1018,63,1012.62,63Z"/><path class="cls-1" d="M900.48,214.15c17.18-30.57,37-60,32.38-63.44s-23.46-9.92-34.53-3.14S883.63,156.1,864,178.1s-41,46.79-41,46.79,28.91-50.39,38.16-64.44,59.4-96.31,59.4-96.31,3.23-8.35-3.73-13.19c-5.45-3.8-28.64-3.65-36.42-2-5.45,1.15-7.17,6.88-5.74,8.32s5.45,4.59,5.45,4.59a7.52,7.52,0,0,1-.29,7.74c-2.58,4-25.52,41.87-32.41,51.91s-35.15,57.17-39,64.26c-3.72,6.85-12.75,17.38-21.93,24.94-8.86,7.28-16.08,13-27.35,16.89,0-8.07-2.12-75.82,16-82.28,11-3.91,15.93-13.54,2.29-18.93-11.24-4.44-31.83-6.6-40.15-.86s-8.6,6-8.89,12.33-.86,14.92-.86,14.92a14.85,14.85,0,0,1-4.3,9.17c-4,3.73-16.93,16.16-16.93,16.16s-5.76,4.61-4.3-2.39c1.14-5.42,4.4-20.67-8-25.9-2.89-1.22-8.25-1.63-8.25-1.63s3.66-4.59,1.94-7.46-4.3-6.88-17.21-6.6-30.67,7-46,21.57c-16.46,15.68-26,27.19-39.48,53.86-2.29,4.31-12.62,17.21-27.24,33.56s-35,36.14-35,36.14-12.34,12.62-8.9-6,25.24-59.66,33.27-72,36.43-54.78,36.43-54.78l12.05-18.93s79.44,2.86,93.78.86,34.42-4.59,60.52-19.79,41.3-26.68,47.9-36.43S802.68,59.84,802.4,53s-8.61-9.18-12-8-6,3.45-6,6.89,2.86,3.15,3.15,4.87.38,3.43-2,4.9c0,0-18.91,13.35-64.54,18.92s-80.12,7.79-100.15,7.79l10-20s10-21.94-15.22-20.68L590.4,48.84s-13.15,4.26,0,11.33c8.18,4.41-2.52,17-2.52,17l-6.3,11.12-250,4.63-13.85,22.67L557.2,126.38l-42.92,66s-41.75,65.8-58,79.47c-5.13,5.13-20.09,18.38-17.52,3.42s33.33-75.64,33.33-75.64,6.57-11-1.28-20.94C465.55,172,456,169.05,447.31,171c-5.15,1.17-4.07,6.66-1.7,7.09,1.7.32,6-.68,1.28,4.87S389.2,262,382.36,269.3s-12.39,12.39-6.84-6,31.2-59.82,31.2-59.82,26.49-39.32,35-45.3c4.78-3.51,7.26-3.42,9-1.71s.13,3.9-.85,5.56c-1.22,2.06-.26,5.6,3.71,4.94s7-4.31,8.26-7.6c2.43-6.11.26-9.49-3.64-14.21-3.14-3.8-10.07-7.93-20.65-7.1s-21.22,4.72-36.34,19.16C375.42,181.86,345,239.51,340.75,261s-5.12,31.72.33,39,13.55,12.07,26.27,2.15,26.93-26.76,36.84-41.8,20-30.06,20-30.06S407.66,262.14,409.31,278s8.81,25.8,17.84,26.77c12.4,1.32,25.94-8.76,39-25.28s25.45-34.86,25.45-34.86-11.9,25.77-10.25,42.46,9.59,20.33,17.68,20.65,19.16-5.12,38.49-24.78,33-36.35,33-36.35-6.12,20.82-2.15,37.5,11.73,25.61,24.78,27.26,32.38-6.44,48.41-25.11,27.75-31.39,37.83-53S692.81,204.81,694,202c11.73-6.78,29.74-20.08,34.2-28.59-.5,12.48-.75,63.44-.75,63.44s-38,14-36.43,46.35c1.15,23.61,19.17,26.43,27.6,26.43s38.16-7.6,40.14-44.94c.66-15.69.83-21,.83-21s12-3,23.79-14c-6.28,16.68-10.41,31.55-10.25,48.07s8.55,22.47,12.37,24.62,9.44-.5,9.44-.5,1.49-.66,1.49-3.13a47.24,47.24,0,0,1,2.48-13.22c1.81-5.45,11.56-25.61,26.76-44.28s48.57-60,63.94-69.39c-9.09,16.36-26.27,46.1-26.27,46.1s-16.3,25.76-20,55.51c-2.81,22.65,1.71,39,13.88,53.69,11.88,14.34,21,12.52,24.15,11.82,3.71-.83,9.07-7.11,4.07-11.11a5.68,5.68,0,0,0-5.59-.38c-2.41,1.38-5.41-1.59-7.41-5.62-2.62-5.31-4.14-16.45-2.91-30C871.41,271,883.3,244.71,900.48,214.15Zm-217.54-66c-7.5.68-14,6.8-18.1,15.67-4.58,10.8-2,24.26,1,27.46s0,7.37,0,7.37-2,3.75-13.29,26.24-28.29,48.74-41.24,60.67-15.68-1.36-14.66-7.5-.34-5.51,11.25-33.74c18.4-44.79,40-75.13,40-75.13,10.55-15,22.36-22.1,27.52-23.32C682.14,144.27,683.33,146.46,682.94,148.14Z"/><path class="cls-1" d="M302.83,325.48c-1.41.38-4.41-1.62-5.41-3.62-4.47-8.94-11.4-33.36,2-64s27.83-55.89,45.06-82.69c10.53-16.28,17.23-22.5,6.7-27.29s-31.12-4.79-41.65,5.27-59.36,63.66-65.1,72.28c19.15-34,45.48-71.81,61.27-98.61s29.2-50.27,32.08-56,10.05-19.63-5.75-22-33,0-33,0-11,4.31,0,12c8.62,6.22-4.79,22-4.79,22l-35.42,55.53s-24.89,43.08-36.38,57.92-45.48,52.66-67,70.85-55,44-80.42,46.43-45,1.92-42.13-40.21,50.74-102,50.74-102,61.87-82.59,120.16-88.56C215.17,81.61,222,88.86,220.9,99a102.71,102.71,0,0,0-61,31.32c-10.54,11.39-18.82,34.44-4,49.55,23.64,24.08,59.25-12,69.41-32.74,6.16-12.58,8.39-17.57,12.88-30.77,18.05-.16,29.42-.5,29.42-.5l13-19.9L239,98.26s2.85-20.48-12.19-33.19-30.1-10.7-30.1-10.7-23.9-.35-43,8.36C75.58,98.44,29,165.42,16.44,197.26S-5,252.37,3.16,294.28c5.87,30,36.89,39.63,40.82,40s38.64,6.79,71.9-16.46,70.83-54.37,86.21-77.62c-6.43,22.89-7.51,31.48-6.79,39.34s4.65,24.33,18.6,22.9c4.65-1.07,1.67-8.67,7.57-21.56s12.46-23.51,36.07-51.42,47.94-54.37,54-58.3c-10.38,17.52-38.71,64.8-43.29,88.71-7.85,41,6.15,66,25.15,76,0,0,6,2,11,0,5.17-2.07,6-6,5-9C308.72,324.74,305,324.89,302.83,325.48Z"/><polygon class="cls-1" points="923.05 4.03 929.25 4.03 929.25 22.84 934.09 22.84 934.09 4.03 940.3 4.03 940.3 0 923.05 0 923.05 4.03"/><path class="cls-1" d="M964.64,0l-5.73,17.47h-.1L953.41,0h-6.6V22.84h4.33V12.22c0-.78,0-1.66-.06-2.63S951,7.71,951,6.85s-.09-1.5-.11-1.93H951l5.5,17.92h4.43L966.81,5H967l-.09,1.92c0,.85-.08,1.74-.1,2.68s0,1.76,0,2.48V22.84h4.52V0Z"/></g></g></svg>