<svg xmlns="http://www.w3.org/2000/svg" viewBox="0 0 1031.42 294.8"><defs><style>.cls-1{fill:#545454;}</style></defs><g id="Layer_2" data-name="Layer 2"><g id="Layer_1-2" data-name="Layer 1"><path class="cls-1" d="M1008.77,186.24c-2-6-8.27-8-11.58-7s-3.31,5.3-1,8.28.67,4.64-6.62,14.9-24.17,29.8-31.78,36.42-4.86-6.94-4.86-6.94.22-6.64,3.63-18.3c2.8-9.58,5.86-17.14,13.81-36s24.5-43.7,31.12-54,5.4-9.88-.56-17.5-15.41-9.69-15.41-9.69-9.85-2.61-16.81,1c-5.09,2.67-1,8.79,1.62,12.1s-13.71,19.45-28.77,54.78c-13.14,30.83-18.14,48.83-18.62,83.43-.38,27.65,30.2,11.6,41.8,5.21,16.09-8.86,36.74-27.42,43-34.35,4.84-5.31,4.64-11.25,4.31-17.21S1010.76,192.2,1008.77,186.24Z"/><path class="cls-1" d="M1030,35.26c-2.65-8.94-11.92-16.88-17.34-16.88s-10.8-.33-19.41,8.27-7.28,26.9-7.28,26.9.33,7.87,4,20.12,13.25,15.56,18.74,12.25,14.37-16.56,18.67-24.17A34.79,34.79,0,0,0,1030,35.26Z"/><path class="cls-1" d="M581.58,43.64l-250,4.63L317.74,70.94,557.2,81.74l-42.92,66s-41.75,65.79-58,79.47c-5.13,5.12-20.09,18.37-17.52,3.42S472.1,155,472.1,155s6.57-11-1.28-20.94c-5.27-6.67-14.85-9.65-23.51-7.69-5.15,1.16-4.07,6.65-1.7,7.09,1.7.32,6-.68,1.28,4.87s-57.69,79.06-64.53,86.32-12.39,12.4-6.84-6,31.2-59.83,31.2-59.83,26.49-39.31,35-45.29c4.78-3.51,7.26-3.42,9-1.71s.13,3.9-.85,5.55c-1.22,2.06-.26,5.61,3.71,5s7-4.32,8.26-7.6c2.43-6.11.26-9.5-3.64-14.21-3.14-3.8-10.07-7.93-20.65-7.1s-21.22,4.72-36.34,19.16c-25.8,24.63-56.18,82.27-60.47,103.75s-5.12,31.72.33,39,13.55,12.06,26.27,2.15,26.93-26.76,36.84-41.8,20-30.07,20-30.07-16.52,31.89-14.87,47.75,8.81,25.8,17.84,26.76c12.4,1.32,25.94-8.75,39-25.27S491.59,200,491.59,200s-11.9,25.77-10.25,42.46,9.59,20.32,17.68,20.65,19.16-5.12,38.49-24.78,33-36.35,33-36.35-6.12,20.82-2.15,37.5,11.73,25.61,24.78,27.26,32.38-6.44,48.41-25.11,27.75-31.39,37.83-53,13.38-28.42,14.54-31.23c11.73-6.77,29.74-20.07,34.2-28.58-.5,12.47-.75,63.44-.75,63.44s-38,14-36.43,46.34c1.15,23.61,19.17,26.44,27.6,26.44s38.16-7.6,40.14-44.94c.66-15.7.83-21,.83-21s12-3,23.79-14.05c-6.28,16.69-10.41,31.56-10.25,48.08s8.55,22.47,12.37,24.62,9.44-.5,9.44-.5,1.49-.66,1.49-3.14a47.18,47.18,0,0,1,2.48-13.21c1.81-5.46,11.56-25.61,26.76-44.28s48.57-60,63.94-69.39c-9.09,16.36-26.27,46.09-26.27,46.09s-16.3,25.77-20,55.52c-2.81,22.64,1.71,39,13.88,53.69,11.88,14.34,21,12.52,24.15,11.82,3.71-.84,9.07-7.11,4.07-11.11a5.68,5.68,0,0,0-5.59-.38c-2.41,1.38-5.41-1.59-7.41-5.62-2.62-5.31-4.14-16.45-2.91-30,1.9-20.89,13.79-47.14,31-77.7s37-60,32.38-63.45-23.46-9.91-34.53-3.13-14.7,8.53-34.36,30.53-41,46.78-41,46.78,28.91-50.39,38.16-64.43,59.4-96.31,59.4-96.31,3.23-8.35-3.73-13.2c-5.45-3.79-28.64-3.64-36.42-2-5.45,1.14-7.17,6.88-5.74,8.31s5.45,4.59,5.45,4.59a7.54,7.54,0,0,1-.29,7.75c-2.58,4-25.52,41.87-32.41,51.91s-35.15,57.16-39,64.26c-3.72,6.84-12.75,17.38-21.93,24.93-8.86,7.29-16.08,13-27.35,16.9,0-8.08-2.12-75.82,16-82.28,11-3.91,15.93-13.54,2.29-18.93-11.24-4.45-31.83-6.6-40.15-.86s-8.6,6-8.89,12.33-.86,14.91-.86,14.91a14.86,14.86,0,0,1-4.3,9.18c-4,3.73-16.93,16.16-16.93,16.16s-5.76,4.6-4.3-2.39c1.14-5.42,4.4-20.67-8-25.9-2.89-1.22-8.25-1.64-8.25-1.64s3.66-4.59,1.94-7.45-4.3-6.89-17.21-6.6-30.67,7-46,21.56c-16.46,15.68-26,27.2-39.48,53.87-2.29,4.3-12.62,17.21-27.24,33.56s-35,36.14-35,36.14-12.34,12.62-8.9-6,25.24-59.65,33.27-72,36.43-54.78,36.43-54.78l12.05-18.93s79.44,2.87,93.78.86S723.81,79.15,749.91,64s41.3-26.67,47.9-36.42,4.87-12.33,4.59-19.22-8.61-9.18-12-8-6,3.44-6,6.89,2.86,3.15,3.15,4.87.38,3.43-2,4.9c0,0-18.91,13.35-64.54,18.91s-80.12,7.79-100.15,7.79l10-20s10-21.93-15.22-20.67L590.4,4.2s-13.15,4.25,0,11.33c8.18,4.41-2.52,17-2.52,17Zm15.1,189.77c1-6.14-.34-5.52,11.25-33.74,18.4-44.8,40-75.13,40-75.13,10.55-15,22.36-22.1,27.52-23.32,6.72-1.59,7.91.6,7.52,2.27-7.5.69-14,6.8-18.1,15.68-4.58,10.8-2,24.26,1,27.46s0,7.37,0,7.37-2,3.75-13.29,26.24S624.29,229,611.34,240.91,595.66,239.54,596.68,233.41Z"/><path class="cls-1" d="M297.42,277.22c-4.47-9-11.4-33.37,2-64s27.83-55.89,45.06-82.7c10.53-16.27,17.23-22.5,6.7-27.28s-31.12-4.79-41.65,5.26-59.36,63.67-65.1,72.29c19.15-34,45.48-71.81,61.27-98.62s29.2-50.26,32.08-56,10.05-19.63-5.75-22-33,0-33,0-11,4.3,0,12c8.62,6.23-4.79,22-4.79,22L258.79,93.66s-24.89,43.09-36.38,57.93-45.48,52.65-67,70.85-55,44-80.42,46.43-45,1.91-42.13-40.21,50.74-102,50.74-102S145.45,44.1,203.74,38.13C215.17,37,222,44.22,220.9,54.4a102.71,102.71,0,0,0-61,31.32c-10.54,11.39-18.82,34.44-4,49.55,23.64,24.08,59.25-12,69.41-32.74,6.16-12.59,8.39-17.57,12.87-30.77,18.06-.17,29.43-.5,29.43-.5l13-19.9L239,53.62s2.85-20.48-12.19-33.19-30.1-10.7-30.1-10.7-23.9-.35-43,8.36C75.58,53.79,29,120.78,16.44,152.62S-5,207.73,3.16,249.63c5.87,30,36.89,39.63,40.82,40s38.64,6.8,71.9-16.45,70.83-54.38,86.21-77.63c-6.43,22.9-7.51,31.48-6.79,39.35s4.65,24.33,18.6,22.9c4.65-1.08,1.67-8.67,7.57-21.56s12.46-23.52,36.07-51.42,47.94-54.37,54-58.31c-10.38,17.53-38.71,64.8-43.29,88.72-7.85,41,6.15,66,25.15,76,0,0,6,2,11,0,5.17-2.07,6-6,5-9-.7-2.12-4.39-2-6.59-1.38C301.42,281.22,298.42,279.22,297.42,277.22Z"/></g></g></svg>